<?xml version="1.0" encoding="utf-8"?><svg version="1.1" id="Layer_1" xmlns="http://www.w3.org/2000/svg" xmlns:xlink="http://www.w3.org/1999/xlink" x="0px" y="0px"	 viewBox="0 0 1224 792" style="enable-background:new 0 0 1224 792;" xml:space="preserve"><style type="text/css">	.st0{opacity:0.08;fill:#2DBCAD;enable-background:new    ;}</style><rect x="1077.8" y="561.7" transform="matrix(0.7071 -0.7071 0.7071 0.7071 -95.802 961.0976)" class="st0" width="69" height="69"/><polygon class="st0" points="589.4,676.2 582.2,669.3 562.1,689.2 582.2,709.4 584.7,706.9 620.6,742.7 669.2,693.9 620.6,645.1 "/><rect x="718.6" y="684.4" transform="matrix(0.7071 -0.7071 0.7071 0.7071 -282.4742 730.2779)" class="st0" width="43.4" height="43.4"/><rect x="912.3" y="627.2" transform="matrix(0.7071 -0.7071 0.7071 0.7071 -185.2504 850.5089)" class="st0" width="43.4" height="43.4"/><rect x="799.4" y="526.6" transform="matrix(0.707 -0.7072 0.7072 0.707 -143.9504 733.5275)" class="st0" width="27.7" height="27.7"/><polygon class="st0" points="1094.5,493.2 1121.4,466.2 1127.8,472.6 1098.7,501.7 1082.1,485 1054.4,512.7 1082.1,540.4 	1105.5,517.2 1134.4,545.9 1174.1,506 1138.4,470.3 1151.6,457.1 1131.8,437.6 1125.3,444.2 1094.5,413.4 1054.5,453.3 "/><rect x="892.5" y="692.1" transform="matrix(0.707 -0.7072 0.7072 0.707 -233.698 847.8411)" class="st0" width="27.7" height="27.7"/><rect x="664.4" y="610.3" transform="matrix(0.7071 -0.7071 0.7071 0.7071 -247.0629 673.0027)" class="st0" width="48.8" height="48.8"/><rect x="998.2" y="655.2" transform="matrix(0.7071 -0.7071 0.7071 0.7071 -181.0517 922.1375)" class="st0" width="48.8" height="48.8"/><rect x="698.4" y="682.1" transform="matrix(0.7071 -0.7072 0.7072 0.7071 -280.2347 699.6713)" class="st0" width="12" height="12"/><rect x="841.7" y="556.5" transform="matrix(0.707 -0.7072 0.7072 0.707 -149.4266 764.3116)" class="st0" width="12" height="12"/><rect x="1027.9" y="447.3" transform="matrix(0.7071 -0.7072 0.7072 0.7071 -17.6811 863.9386)" class="st0" width="12" height="12"/><rect x="974.2" y="461.6" transform="matrix(0.7071 -0.7071 0.7071 0.7071 -43.5378 830.0328)" class="st0" width="12" height="12"/><rect x="804.4" y="698.1" transform="matrix(0.7071 -0.7071 0.7071 0.7071 -264.0562 787.8824)" class="st0" width="29.3" height="29.3"/><polygon class="st0" points="955.6,503.6 903.2,555.7 955.6,608.1 968.1,595.3 995.1,622 1025.7,591.4 998.8,564.7 1001.5,561.9 	1014.6,574.9 1049.1,540.4 1014.6,506 986.2,534.4 "/><rect x="1054.3" y="543.3" transform="matrix(0.7071 -0.7071 0.7071 0.7071 -80.5584 917.1369)" class="st0" width="25" height="25"/><rect x="1122.9" y="674.6" transform="matrix(0.7071 -0.7071 0.7071 0.7071 -155.2225 1008.7626)" class="st0" width="34.3" height="34.3"/><rect x="756" y="653.5" transform="matrix(0.7071 -0.7071 0.7071 0.7071 -244.2197 734.5678)" class="st0" width="17.2" height="17.2"/><rect x="875.7" y="570.3" transform="matrix(0.7071 -0.7071 0.7071 0.7071 -150.3795 794.8471)" class="st0" width="17.2" height="17.2"/><rect x="1025.2" y="482.9" transform="matrix(0.7072 -0.707 0.707 0.7072 -44.8032 874.8595)" class="st0" width="17.2" height="17.2"/><rect x="1035.9" y="401.1" transform="matrix(0.7072 -0.707 0.707 0.7072 14.1254 863.3644)" class="st0" width="27.1" height="27.1"/><rect x="673.3" y="697.6" transform="matrix(0.7071 -0.7071 0.7071 0.7071 -299.6528 689.0436)" class="st0" width="17.2" height="17.2"/><rect x="941.9" y="666.9" transform="matrix(0.7071 -0.7071 0.7071 0.7071 -203.8101 880.9303)" class="st0" width="39.1" height="39.1"/><rect x="1122.9" y="381.6" transform="matrix(0.7072 -0.7071 0.7071 0.7072 50.926 925.2589)" class="st0" width="39.1" height="39.1"/><polygon class="st0" points="899.2,671.4 882.5,654.7 870.9,666.6 854.2,649.9 829.8,674.1 854.2,698.5 873.6,679 882.5,687.9 "/><polygon class="st0" points="811.6,670.8 814.9,674.1 827.5,661.5 814.9,648.9 806,657.8 799.4,651.3 783.5,667.1 799.4,683 "/><polygon class="st0" points="821.5,648.5 853.3,616.8 867.2,630.7 886.8,611 867.2,591.4 849.6,609 821.5,580.9 793.8,608.6 	781.6,596.2 755.6,622 781.6,647.8 801.1,628 "/></svg>