<?xml version="1.0" encoding="utf-8"?><svg version="1.1" id="Layer_1" xmlns="http://www.w3.org/2000/svg" xmlns:xlink="http://www.w3.org/1999/xlink" x="0px" y="0px"	 viewBox="0 0 1224 792" style="enable-background:new 0 0 1224 792;" xml:space="preserve"><style type="text/css">	.st0{opacity:0.08;fill:#2DBCAD;enable-background:new    ;}</style><rect x="73.5" y="147.1" transform="matrix(0.7071 -0.7071 0.7071 0.7071 -94.5593 124.2341)" class="st0" width="58.4" height="58.4"/><polygon class="st0" points="545.2,108.5 551.3,114.6 568.3,97.5 551.3,80.5 549.1,82.6 518.8,52.3 477.5,93.6 518.8,134.9 "/><rect x="399.1" y="64.9" transform="matrix(0.7071 -0.7071 0.7071 0.7071 63.3903 319.5774)" class="st0" width="36.7" height="36.7"/><rect x="235.4" y="113.3" transform="matrix(0.7071 -0.7071 0.7071 0.7071 -18.8152 217.9915)" class="st0" width="36.7" height="36.7"/><polygon class="st0" points="276.2,228.9 292.9,212.1 276.2,195.6 270.4,201.3 235.3,166.4 224.5,177.2 201.9,154.4 176,180.3 	198.6,203.1 196.3,205.4 185.3,194.3 156.1,223.5 185.3,252.6 209.4,228.5 235.3,254.6 268.6,221.3 "/><polygon class="st0" points="117.8,263.6 95,286.3 89.6,280.8 117.8,252.6 84,218.9 50.4,252.6 80.6,282.8 69.4,294 86.1,310.7 	91.7,304.9 117.8,331 151.4,297.2 "/><rect x="265" y="71.6" transform="matrix(0.707 -0.7072 0.7072 0.707 22.1565 220.0782)" class="st0" width="23.4" height="23.4"/><polygon class="st0" points="321.2,169.4 325.8,173.9 336.2,163.6 325.8,153.3 321.1,158 310.1,147.1 293.5,163.8 310.1,180.3 "/><polygon class="st0" points="358.8,208.5 363.4,213.1 373.7,203 363.4,192.6 359.4,196.6 348.5,185.6 331.9,202.1 348.5,218.9 "/><rect x="508.5" y="134.5" transform="matrix(0.7071 -0.7071 0.7071 0.7071 45.2403 419.6243)" class="st0" width="41.3" height="41.3"/><rect x="158" y="85.2" transform="matrix(0.7071 -0.7071 0.7071 0.7071 -22.5057 157.3307)" class="st0" width="41.3" height="41.3"/><rect x="443" y="93.6" transform="matrix(0.707 -0.7072 0.7072 0.707 61.5128 345.7644)" class="st0" width="10.2" height="10.2"/><rect x="321.7" y="199.6" transform="matrix(0.7071 -0.7071 0.7071 0.7071 -49.033 291.0463)" class="st0" width="10.2" height="10.2"/><rect x="164" y="292.1" transform="matrix(0.7071 -0.7072 0.7072 0.7071 -160.6378 206.6345)" class="st0" width="10.2" height="10.2"/><rect x="209.5" y="280.1" transform="matrix(0.707 -0.7072 0.7072 0.707 -138.8166 235.3105)" class="st0" width="10.2" height="10.2"/><rect x="338.4" y="65.3" transform="matrix(0.7071 -0.7071 0.7071 0.7071 47.8379 270.8198)" class="st0" width="24.8" height="24.8"/><polygon class="st0" points="449.1,232.1 493.2,188 469.5,164.4 490.3,143.8 461.1,114.6 431.9,143.8 440.6,152.5 404.9,188 "/><rect x="130.6" y="199.9" transform="matrix(0.7072 -0.7071 0.7071 0.7072 -107.4834 161.4375)" class="st0" width="21.2" height="21.2"/><rect x="306.5" y="95.8" transform="matrix(0.7071 -0.7071 0.7071 0.7071 15.9844 259.2794)" class="st0" width="29" height="29"/><rect x="64.5" y="81" transform="matrix(0.7071 -0.7071 0.7071 0.7071 -44.4228 83.8557)" class="st0" width="29" height="29"/><polygon class="st0" points="365,126.4 375.4,116.1 365,105.7 357.5,113.4 354.4,110.3 343.7,121 354.4,131.6 362.4,123.8 "/><rect x="288.3" y="183.6" transform="matrix(0.7071 -0.7071 0.7071 0.7071 -48.4372 264.9419)" class="st0" width="14.6" height="14.6"/><rect x="161.7" y="257.6" transform="matrix(0.7071 -0.7071 0.7071 0.7071 -137.8012 197.094)" class="st0" width="14.6" height="14.6"/><polygon class="st0" points="394,143.9 404.4,133.6 399.3,128.5 407.2,120.7 396.8,110.3 389,118.2 382.6,111.8 360.8,133.6 	371.3,143.9 360.8,154.4 382.6,176.2 404.4,154.4 "/><rect x="459.7" y="76" transform="matrix(0.7071 -0.7071 0.7071 0.7071 77.8395 354.5982)" class="st0" width="14.6" height="14.6"/><rect x="213.6" y="83.5" transform="matrix(0.7071 -0.7071 0.7071 0.7071 -3.3241 192.0416)" class="st0" width="33.1" height="33.1"/><rect x="60.7" y="324.8" transform="matrix(0.7072 -0.7071 0.7071 0.7072 -218.7329 154.5674)" class="st0" width="33.1" height="33.1"/><rect x="446.5" y="290.8" transform="matrix(0.7071 -0.7071 0.7071 0.7071 -79.6987 412.5981)" class="st0" width="23.4" height="23.4"/><polygon class="st0" points="158.6,343.5 161.7,340.4 186.6,365.3 216.8,335.3 230.7,349.4 254.2,325.9 230.7,302.5 211.1,322.3 	186.6,297.9 163.4,321.3 155.8,313.8 139.4,330 151.2,341.8 137.5,355.6 154.2,372.3 170.7,355.6 "/><rect x="196.5" y="352.5" transform="matrix(0.7071 -0.7071 0.7071 0.7071 -201.5915 266.063)" class="st0" width="47.7" height="47.7"/><rect x="424.3" y="278.6" transform="matrix(0.707 -0.7072 0.7072 0.707 -74.8232 386.8134)" class="st0" width="10.2" height="10.2"/><rect x="266.6" y="371.1" transform="matrix(0.7071 -0.7072 0.7072 0.7071 -186.4564 302.3566)" class="st0" width="10.2" height="10.2"/><rect x="312.1" y="359.1" transform="matrix(0.707 -0.7072 0.7072 0.707 -164.631 331.0328)" class="st0" width="10.2" height="10.2"/><polygon class="st0" points="298.9,284.5 288,273.3 258.8,302.5 288,331.7 311.9,307.6 338,333.6 382.1,289.5 338,245.4 "/><rect x="233.2" y="278.9" transform="matrix(0.7071 -0.7071 0.7071 0.7071 -133.3095 257.1504)" class="st0" width="21.1" height="21.1"/><rect x="390.9" y="262.7" transform="matrix(0.7072 -0.707 0.707 0.7072 -74.2721 360.5826)" class="st0" width="14.6" height="14.6"/><rect x="264.3" y="336.6" transform="matrix(0.7072 -0.707 0.707 0.7072 -163.6084 292.7387)" class="st0" width="14.6" height="14.6"/><rect x="246.8" y="397.7" transform="matrix(0.7072 -0.707 0.707 0.7072 -213.6246 302.4264)" class="st0" width="23" height="23"/><rect x="163.3" y="403.8" transform="matrix(0.7072 -0.7071 0.7071 0.7072 -244.551 250.2706)" class="st0" width="33.1" height="33.1"/><polygon class="st0" points="813.4,91.5 817.7,95.9 830.3,83.9 818.3,71.1 816.9,72.6 795.4,50 764.4,79.2 793.6,110 "/><rect x="707.5" y="57.1" transform="matrix(0.7273 -0.6863 0.6863 0.7273 148.2403 513.9724)" class="st0" width="26.7" height="26.7"/><rect x="610" y="58.8" transform="matrix(0.7272 -0.6864 0.6864 0.7272 122.4631 442.9822)" class="st0" width="17.2" height="17.2"/><rect x="632.5" y="118.2" transform="matrix(0.7272 -0.6864 0.6864 0.7272 87.859 474.6444)" class="st0" width="17.2" height="17.2"/><rect x="736.4" y="100.3" transform="matrix(0.7273 -0.6863 0.6863 0.7273 125.7458 547.1368)" class="st0" width="30" height="30"/><rect x="739.2" y="78.5" transform="matrix(0.7272 -0.6864 0.6864 0.7272 146.2542 532.3051)" class="st0" width="7.4" height="7.4"/><rect x="648.7" y="153.2" transform="matrix(0.7273 -0.6863 0.6863 0.7273 70.1953 490.534)" class="st0" width="7.4" height="7.4"/><polygon class="st0" points="672.9,76.9 681.8,86.2 676.5,91 674.4,88.7 666.4,96.2 673.9,104.3 680,98.7 681.8,100.7 689.5,93.4 	686.5,90.3 702.4,75.4 687,59 682.9,62.8 672.9,52.1 659.8,64.4 672.1,77.5 "/><rect x="699.8" y="91.8" transform="matrix(0.7273 -0.6864 0.6864 0.7273 125.6868 510.4822)" class="st0" width="10.7" height="10.7"/><rect x="624.6" y="140.9" transform="matrix(0.7273 -0.6863 0.6863 0.7273 71.4314 472.1628)" class="st0" width="10.7" height="10.7"/><rect x="575.6" y="140.8" transform="matrix(2.899980e-02 -0.9996 0.9996 2.899980e-02 417.997 729.0599)" class="st0" width="17.2" height="17.2"/><polygon class="st0" points="594.1,116.2 593.7,123.6 601.1,123.8 601.3,119.8 613.6,108.2 624.1,119.4 640.6,103.6 642.3,105.4 	657.7,91 643.2,75.6 633.1,85.1 625.4,76.9 609.3,92 601.1,83.3 581.8,101.6 595.5,116.2 "/><rect x="600.6" y="138.2" transform="matrix(2.895855e-02 -0.9996 0.9996 2.895855e-02 444.9209 744.9626)" class="st0" width="10.7" height="10.7"/><rect x="682.7" y="110.2" transform="matrix(0.7272 -0.6864 0.6864 0.7272 105.9497 509.4363)" class="st0" width="22.5" height="22.5"/><rect x="751.6" y="66" transform="matrix(0.7273 -0.6864 0.6864 0.7273 157.4891 538.9822)" class="st0" width="10.7" height="10.7"/></svg>